<svg width="34" height="34" viewBox="0 0 34 34" fill="none" xmlns="http://www.w3.org/2000/svg">
<path d="M11.3335 31.1667H22.6668C28.3618 31.1667 29.3818 28.8858 29.6793 26.1092L30.7418 14.7758C31.1243 11.3192 30.1327 8.5 24.0835 8.5H9.91683C3.86766 8.5 2.87599 11.3192 3.25849 14.7758L4.32099 26.1092C4.61849 28.8858 5.63849 31.1667 11.3335 31.1667Z" stroke="white" stroke-width="1.5" stroke-miterlimit="10" stroke-linecap="round" stroke-linejoin="round"/>
<path d="M11.333 8.49992V7.36658C11.333 4.85908 11.333 2.83325 15.8663 2.83325H18.133C22.6663 2.83325 22.6663 4.85908 22.6663 7.36658V8.49992" stroke="white" stroke-width="1.5" stroke-miterlimit="10" stroke-linecap="round" stroke-linejoin="round"/>
<path d="M19.8337 18.4167V19.8333C19.8337 19.8475 19.8337 19.8475 19.8337 19.8617C19.8337 21.4058 19.8195 22.6667 17.0003 22.6667C14.1953 22.6667 14.167 21.42 14.167 19.8758V18.4167C14.167 17 14.167 17 15.5837 17H18.417C19.8337 17 19.8337 17 19.8337 18.4167Z" stroke="white" stroke-width="1.5" stroke-miterlimit="10" stroke-linecap="round" stroke-linejoin="round"/>
<path d="M30.6705 15.5833C27.398 17.9633 23.658 19.3799 19.833 19.8616" stroke="white" stroke-width="1.5" stroke-miterlimit="10" stroke-linecap="round" stroke-linejoin="round"/>
<path d="M3.71191 15.9658C6.89941 18.1475 10.4977 19.465 14.1669 19.8758" stroke="white" stroke-width="1.5" stroke-miterlimit="10" stroke-linecap="round" stroke-linejoin="round"/>
</svg>
