<svg width="34" height="34" viewBox="0 0 34 34" fill="none" xmlns="http://www.w3.org/2000/svg">
<path d="M17.2129 23.375V26.35" stroke="white" stroke-width="1.5" stroke-linecap="round" stroke-linejoin="round"/>
<path d="M10.1289 31.1667H24.2956V29.7501C24.2956 28.1917 23.0206 26.9167 21.4622 26.9167H12.9622C11.4039 26.9167 10.1289 28.1917 10.1289 29.7501V31.1667V31.1667Z" stroke="white" stroke-width="1.5" stroke-miterlimit="10"/>
<path d="M8.71289 31.1667H25.7129" stroke="white" stroke-width="1.5" stroke-linecap="round" stroke-linejoin="round"/>
<path d="M16.9997 22.6666C11.5172 22.6666 7.08301 18.2324 7.08301 12.7499V8.49992C7.08301 5.36909 9.61884 2.83325 12.7497 2.83325H21.2497C24.3805 2.83325 26.9163 5.36909 26.9163 8.49992V12.7499C26.9163 18.2324 22.4822 22.6666 16.9997 22.6666Z" stroke="white" stroke-width="1.5" stroke-linecap="round" stroke-linejoin="round"/>
<path d="M7.74882 16.5043C6.68632 16.1643 5.75132 15.5409 5.01465 14.8043C3.73965 13.3876 2.88965 11.6876 2.88965 9.70426C2.88965 7.72093 4.44798 6.1626 6.43132 6.1626H7.35215C7.06882 6.81426 6.92715 7.53676 6.92715 8.2876V12.5376C6.92715 13.9543 7.22465 15.2859 7.74882 16.5043Z" stroke="white" stroke-width="1.5" stroke-linecap="round" stroke-linejoin="round"/>
<path d="M26.251 16.5043C27.3135 16.1643 28.2485 15.5409 28.9851 14.8043C30.2601 13.3876 31.1101 11.6876 31.1101 9.70426C31.1101 7.72093 29.5518 6.1626 27.5685 6.1626H26.6476C26.931 6.81426 27.0726 7.53676 27.0726 8.2876V12.5376C27.0726 13.9543 26.7751 15.2859 26.251 16.5043Z" stroke="white" stroke-width="1.5" stroke-linecap="round" stroke-linejoin="round"/>
</svg>
