<svg width="34" height="34" viewBox="0 0 34 34" fill="none" xmlns="http://www.w3.org/2000/svg">
<path d="M28.3333 19.8334C29.8981 19.8334 31.1667 18.5649 31.1667 17.0001C31.1667 15.4353 29.8981 14.1667 28.3333 14.1667C26.7685 14.1667 25.5 15.4353 25.5 17.0001C25.5 18.5649 26.7685 19.8334 28.3333 19.8334Z" stroke="white" stroke-width="1.5" stroke-linecap="round" stroke-linejoin="round"/>
<path d="M28.3333 8.49992C29.8981 8.49992 31.1667 7.23139 31.1667 5.66659C31.1667 4.10178 29.8981 2.83325 28.3333 2.83325C26.7685 2.83325 25.5 4.10178 25.5 5.66659C25.5 7.23139 26.7685 8.49992 28.3333 8.49992Z" stroke="white" stroke-width="1.5" stroke-linecap="round" stroke-linejoin="round"/>
<path d="M28.3333 31.1667C29.8981 31.1667 31.1667 29.8981 31.1667 28.3333C31.1667 26.7685 29.8981 25.5 28.3333 25.5C26.7685 25.5 25.5 26.7685 25.5 28.3333C25.5 29.8981 26.7685 31.1667 28.3333 31.1667Z" stroke="white" stroke-width="1.5" stroke-linecap="round" stroke-linejoin="round"/>
<path d="M5.66634 19.8334C7.23115 19.8334 8.49967 18.5649 8.49967 17.0001C8.49967 15.4353 7.23115 14.1667 5.66634 14.1667C4.10153 14.1667 2.83301 15.4353 2.83301 17.0001C2.83301 18.5649 4.10153 19.8334 5.66634 19.8334Z" stroke="white" stroke-width="1.5" stroke-linecap="round" stroke-linejoin="round"/>
<path d="M8.5 17H25.5" stroke="white" stroke-width="1.5" stroke-linecap="round" stroke-linejoin="round"/>
<path d="M25.4997 5.66675H19.833C16.9997 5.66675 15.583 7.08341 15.583 9.91675V24.0834C15.583 26.9167 16.9997 28.3334 19.833 28.3334H25.4997" stroke="white" stroke-width="1.5" stroke-linecap="round" stroke-linejoin="round"/>
</svg>
