<svg width="481" height="195" viewBox="0 0 481 195" fill="none" xmlns="http://www.w3.org/2000/svg">
<path d="M377.221 195C362.318 195 348.492 192.576 335.743 187.728C323.174 182.88 312.221 176.057 302.884 167.258C293.727 158.46 286.545 148.135 281.337 136.285C276.31 124.434 273.796 111.506 273.796 97.5C273.796 83.4945 276.31 70.5663 281.337 58.7155C286.545 46.8646 293.817 36.5401 303.154 27.7417C312.491 18.9434 323.444 12.1202 336.013 7.27209C348.582 2.42403 362.228 0 376.952 0C391.855 0 405.502 2.42403 417.891 7.27209C430.46 12.1202 441.324 18.9434 450.481 27.7417C459.818 36.5401 467.09 46.8646 472.297 58.7155C477.505 70.3867 480.108 83.3149 480.108 97.5C480.108 111.506 477.505 124.523 472.297 136.554C467.09 148.405 459.818 158.729 450.481 167.528C441.324 176.146 430.46 182.88 417.891 187.728C405.502 192.576 391.945 195 377.221 195ZM376.952 157.831C385.391 157.831 393.112 156.395 400.115 153.522C407.297 150.649 413.582 146.519 418.969 141.133C424.355 135.746 428.485 129.372 431.358 122.01C434.411 114.648 435.937 106.478 435.937 97.5C435.937 88.5221 434.411 80.3522 431.358 72.9903C428.485 65.6284 424.355 59.2541 418.969 53.8674C413.761 48.4807 407.567 44.3508 400.384 41.4779C393.202 38.605 385.391 37.1685 376.952 37.1685C368.513 37.1685 360.702 38.605 353.52 41.4779C346.517 44.3508 340.322 48.4807 334.935 53.8674C329.549 59.2541 325.329 65.6284 322.277 72.9903C319.404 80.3522 317.967 88.5221 317.967 97.5C317.967 106.298 319.404 114.468 322.277 122.01C325.329 129.372 329.459 135.746 334.666 141.133C340.053 146.519 346.337 150.649 353.52 153.522C360.702 156.395 368.513 157.831 376.952 157.831Z" fill="white"/>
<path d="M88.376 191.768V3.23207H169.985C186.864 3.23207 201.408 6.01522 213.618 11.5815C225.828 16.9683 235.254 24.779 241.898 35.0139C248.542 45.2487 251.864 57.4586 251.864 71.6437C251.864 85.6492 248.542 97.7694 241.898 108.004C235.254 118.239 225.828 126.14 213.618 131.706C201.408 137.093 186.864 139.786 169.985 139.786H112.616L132.009 120.124V191.768H88.376ZM132.009 124.972L112.616 104.233H167.561C181.028 104.233 191.083 101.361 197.727 95.6147C204.37 89.8688 207.692 81.8785 207.692 71.6437C207.692 61.2293 204.37 53.1492 197.727 47.4034C191.083 41.6575 181.028 38.7846 167.561 38.7846H112.616L132.009 18.0456V124.972Z" fill="white"/>
<path d="M0 191.768V3.23207H43.6326V191.768H0Z" fill="white"/>
</svg>
